<?xml version="1.0" standalone="no"?>
<!DOCTYPE svg PUBLIC "-//W3C//DTD SVG 20010904//EN"
 "http://www.w3.org/TR/2001/REC-SVG-20010904/DTD/svg10.dtd">
<svg version="1.0" xmlns="http://www.w3.org/2000/svg"
 width="224.000000pt" height="224.000000pt" viewBox="0 0 224.000000 224.000000"
 preserveAspectRatio="xMidYMid meet">
<metadata>
Created by potrace 1.10, written by Peter Selinger 2001-2011
</metadata>
<g transform="translate(0.000000,224.000000) scale(0.100000,-0.100000)"
fill="#000000" stroke="none">
<path d="M215 1725 c-65 -35 -72 -29 244 -227 235 -148 310 -201 355 -248 34
-37 51 -62 44 -65 -7 -2 -67 -13 -134 -25 l-120 -22 -70 73 c-123 129 -137
139 -184 124 -20 -6 -21 -11 -14 -91 l7 -84 -57 25 c-31 14 -83 39 -116 55
-62 31 -114 39 -126 18 -5 -8 33 -51 106 -120 100 -95 111 -109 99 -124 -11
-14 -11 -18 6 -30 10 -8 28 -14 40 -14 15 0 37 -23 76 -75 44 -61 58 -75 78
-73 27 3 36 16 51 74 l10 40 232 0 c128 0 253 3 278 7 45 7 46 7 112 -50 l67
-58 0 -162 1 -163 34 0 c73 0 74 1 190 256 60 132 112 243 116 247 4 5 59 17
121 28 237 40 454 113 514 173 29 30 33 76 7 98 -9 9 -39 23 -67 31 -27 8 -67
22 -87 31 -50 22 -115 20 -190 -4 -35 -12 -141 -36 -237 -54 l-174 -33 -576
224 c-317 124 -583 227 -591 229 -8 3 -28 -3 -45 -11z"/>
</g>
</svg>
